<?xml version="1.0" encoding="UTF-8"?>
<svg version="1.1" xmlns="http://www.w3.org/2000/svg" width="111" height="35">
<path d="M0 0 C0.86625 0.45375 1.7325 0.9075 2.625 1.375 C5.3254039 0.72836433 5.3254039 0.72836433 7.625 -0.625 C12.50494037 -2.25164679 17.52737583 -2.05149445 22.625 -1.625 C24.625 -0.625 26.625 0.375 28.625 1.375 C29.924375 0.7253125 29.924375 0.7253125 31.25 0.0625 C36.26918109 -2.44709054 41.10874536 -2.36099624 46.625 -1.625 C48.7109375 -0.58203125 48.7109375 -0.58203125 50.4375 0.625 C51.489375 1.2025 52.54125 1.78 53.625 2.375 C56.62271242 0.80269472 56.62271242 0.80269472 58.5390625 -0.578125 C62.91221392 -2.77289013 67.88942808 -2.2713594 72.625 -1.625 C77.53213015 0.69473425 80.4361048 4.09276931 83.625 8.375 C85.34228565 13.52685695 85.0630073 17.88062216 83.5625 23 C80.92722547 27.59047821 77.38543137 30.99478431 72.625 33.375 C64.81563324 34.10787903 59.32043169 33.49526565 52.625 29.375 C51.8825 30.035 51.14 30.695 50.375 31.375 C45.62637442 34.54451018 40.09576605 34.03678622 34.625 33.375 C32.46875 32.5859375 32.46875 32.5859375 30.6875 31.6875 C29.676875 31.254375 28.66625 30.82125 27.625 30.375 C26.85929687 30.83519531 26.09359375 31.29539063 25.3046875 31.76953125 C20.7369983 34.50614971 15.79884931 33.93737493 10.625 33.375 C8.60343296 32.41935012 6.59533426 31.43225253 4.625 30.375 C1.9245961 31.02163567 1.9245961 31.02163567 -0.375 32.375 C-5.47106514 34.07368838 -11.36789368 34.38653119 -16.51171875 32.65625 C-21.39178109 30.03096701 -24.62916445 26.61250665 -26.375 21.375 C-27.07266205 14.192512 -26.77036204 9.19588486 -22.375 3.375 C-16.15069063 -2.3938721 -7.74189704 -3.72758005 0 0 Z " fill="#0F1014" transform="translate(26.375,1.625)"/>
<path d="M0 0 C2.03412421 -0.92862192 4.03247172 -1.93753473 6 -3 C8.72556896 -3.26663175 11.25268093 -3.14210271 14 -3 C14 -2.34 14 -1.68 14 -1 C15.11375 -0.5875 16.2275 -0.175 17.375 0.25 C19.68719694 1.10636924 20.77982564 1.70507508 22.265625 3.6953125 C23.28326876 6.88898176 22.8741804 9.32444901 22.375 12.625 C22.21773438 13.77226562 22.06046875 14.91953125 21.8984375 16.1015625 C21 19 21 19 19.1015625 20.3984375 C17 21 17 21 14 21 C14.33 18.69 14.66 16.38 15 14 C11.95865509 15.66924071 11.95865509 15.66924071 11 18 C10.34 17.67 9.68 17.34 9 17 C9.33 16.34 9.66 15.68 10 15 C9.01 15 8.02 15 7 15 C7.495 13.515 7.495 13.515 8 12 C9.32 12 10.64 12 12 12 C12.33 11.34 12.66 10.68 13 10 C10.69 10.33 8.38 10.66 6 11 C6.66 13.97 7.32 16.94 8 20 C7.01 20.33 6.02 20.66 5 21 C4.505 22.485 4.505 22.485 4 24 C3.505 22.515 3.505 22.515 3 21 C1.35 21 -0.3 21 -2 21 C-3.16968953 18.66062093 -3.13364221 17.22630632 -3.125 14.625 C-3.12886719 13.46871094 -3.12886719 13.46871094 -3.1328125 12.2890625 C-3.00389788 10.0671811 -2.61383717 8.13381492 -2 6 C-4.42144512 7.99685749 -4.42144512 7.99685749 -4.375 11.9375 C-4.76887584 15.74496644 -4.76887584 15.74496644 -6.8125 18 C-9 19 -9 19 -13 19 C-13.495 20.485 -13.495 20.485 -14 22 C-14.66 22 -15.32 22 -16 22 C-16.66 23.98 -17.32 25.96 -18 28 C-22.41889613 26.64978174 -24.34345343 24.73884332 -27 21 C-26.896875 21.763125 -26.79375 22.52625 -26.6875 23.3125 C-27 26 -27 26 -28.8125 27.8125 C-33.57919091 29.58832603 -37.97987423 29.78775155 -43 29 C-45.93537475 27.63588437 -47.58978615 26.24953292 -50 24 C-50 23.34 -50 22.68 -50 22 C-49.34 22 -48.68 22 -48 22 C-48 21.34 -48 20.68 -48 20 C-46.68 20 -45.36 20 -44 20 C-44 20.66 -44 21.32 -44 22 C-40.7 22.33 -37.4 22.66 -34 23 C-35.83081897 20.70941092 -35.83081897 20.70941092 -38.5625 20.9375 C-39.366875 20.958125 -40.17125 20.97875 -41 21 C-41.33 20.67 -41.66 20.34 -42 20 C-43.68183948 19.76712992 -45.3712416 19.58735834 -47.0625 19.4375 C-47.98160156 19.35371094 -48.90070312 19.26992188 -49.84765625 19.18359375 C-50.91306641 19.09271484 -50.91306641 19.09271484 -52 19 C-52 16.03 -52 13.06 -52 10 C-51.01 10 -50.02 10 -49 10 C-48.67 10.99 -48.34 11.98 -48 13 C-47.01 13 -46.02 13 -45 13 C-44.67 11.35 -44.34 9.7 -44 8 C-41.36 8 -38.72 8 -36 8 C-36.33 7.01 -36.66 6.02 -37 5 C-40.41642759 4.74984127 -40.41642759 4.74984127 -44 5 C-44.99 6.485 -44.99 6.485 -46 8 C-47.32 8 -48.64 8 -50 8 C-50 7.01 -50 6.02 -50 5 C-48.68 5 -47.36 5 -46 5 C-45.67 3.68 -45.34 2.36 -45 1 C-42.9174133 0.80438131 -40.83388144 0.61880687 -38.75 0.4375 C-37.58984375 0.33308594 -36.4296875 0.22867187 -35.234375 0.12109375 C-32 0 -32 0 -29.859375 0.59375 C-27.21729885 1.17101033 -25.89424821 0.24765287 -23.5 -0.9375 C-15.08572219 -4.52228108 -8.03514015 -4.01757008 0 0 Z " fill="#10131B" transform="translate(55,3)"/>
<path d="M0 0 C0 0.99 0 1.98 0 3 C2.64 3 5.28 3 8 3 C8.268125 4.134375 8.53625 5.26875 8.8125 6.4375 C9.204375 7.613125 9.59625 8.78875 10 10 C10.99 10.33 11.98 10.66 13 11 C13 11.99 13 12.98 13 14 C13.66 12.02 14.32 10.04 15 8 C17 10 17 10 17.25 13.8125 C17.0673772 19.14700817 15.84543567 22.42912554 12.125 26.3125 C7.98177217 29.64961865 4.07925689 29.8542234 -1.1171875 29.59375 C-5.5601231 28.67867383 -8.27028233 26.56334403 -11 23 C-13.31263876 19.09109544 -13.54325241 15.45811899 -13 11 C-10.79695602 4.75804207 -6.90924887 0 0 0 Z " fill="#6A4C43" transform="translate(91,3)"/>
<path d="M0 0 C-0.45224761 5.91492272 -1.1582605 11.35199888 -3 17 C-2.34 17.598125 -1.68 18.19625 -1 18.8125 C1 21 1 21 1 24 C-2.86347238 27.59702601 -7.24124968 27.55197227 -12.26171875 27.4296875 C-16.62824481 26.74449796 -18.79359173 24.99264772 -22 22 C-22 21.34 -22 20.68 -22 20 C-21.34 20 -20.68 20 -20 20 C-20 19.34 -20 18.68 -20 18 C-18.68 18 -17.36 18 -16 18 C-16 18.66 -16 19.32 -16 20 C-12.7 20.33 -9.4 20.66 -6 21 C-7.83081897 18.70941092 -7.83081897 18.70941092 -10.5625 18.9375 C-11.366875 18.958125 -12.17125 18.97875 -13 19 C-13.33 18.67 -13.66 18.34 -14 18 C-15.68183948 17.76712992 -17.3712416 17.58735834 -19.0625 17.4375 C-19.98160156 17.35371094 -20.90070312 17.26992188 -21.84765625 17.18359375 C-22.91306641 17.09271484 -22.91306641 17.09271484 -24 17 C-24 14.03 -24 11.06 -24 8 C-23.01 8 -22.02 8 -21 8 C-20.67 8.99 -20.34 9.98 -20 11 C-19.01 11 -18.02 11 -17 11 C-16.67 9.35 -16.34 7.7 -16 6 C-13.36 6 -10.72 6 -8 6 C-8.33 5.01 -8.66 4.02 -9 3 C-12.41642759 2.74984127 -12.41642759 2.74984127 -16 3 C-16.99 4.485 -16.99 4.485 -18 6 C-19.32 6 -20.64 6 -22 6 C-22 5.01 -22 4.02 -22 3 C-20.68 3 -19.36 3 -18 3 C-17.67 1.68 -17.34 0.36 -17 -1 C-10.92732532 -2.18491213 -5.5570182 -3.06970656 0 0 Z " fill="#917475" transform="translate(27,5)"/>
<path d="M0 0 C4.3890815 0.51035831 7.33708062 1.52214277 11 4 C11.9075 3.34 12.815 2.68 13.75 2 C18.89080586 -0.93162045 24.25400993 -0.78427162 30 0 C34.90713015 2.31973425 37.8111048 5.71776931 41 10 C42.71728565 15.15185695 42.4380073 19.50562216 40.9375 24.625 C38.30222547 29.21547821 34.76043137 32.61978431 30 35 C22.19063324 35.73287903 16.69543169 35.12026565 10 31 C9.67 31.33 9.34 31.66 9 32 C6.66702567 32.04092937 4.33294775 32.04241723 2 32 C4 30.66666667 6 29.33333333 8 28 C7.83757812 27.2884375 7.67515625 26.576875 7.5078125 25.84375 C6.99939491 22.99661151 6.86688496 20.38895309 6.875 17.5 C6.87113281 16.12328125 6.87113281 16.12328125 6.8671875 14.71875 C6.99755965 12.04995546 7.40621394 9.60134847 8 7 C3.66335081 3.88303339 0.19591612 3.44033187 -5 3 C-5 2.67 -5 2.34 -5 2 C-3.35 2 -1.7 2 0 2 C0 1.34 0 0.68 0 0 Z M12.55078125 7.36328125 C9.37992334 10.70985421 9.05592988 13.4127363 8.625 17.9375 C8.77823967 23.36218425 11.61782843 26.35867125 15 30.375 C19.87703877 33.01672934 24.60263774 33.05297377 30 32 C33.80048021 29.84090366 37.20790004 27.25169988 38.6953125 23.0234375 C39.21026211 19.60364391 39.1676257 16.46426448 39 13 C38.34 12.34 37.68 11.68 37 11 C36.34 12.65 35.68 14.3 35 16 C34.67 15.34 34.34 14.68 34 14 C33.34 13.67 32.68 13.34 32 13 C31.26924352 10.6859378 30.59861742 8.35171131 30 6 C27.36 6 24.72 6 22 6 C22 5.01 22 4.02 22 3 C17.08176357 3 16.01146165 4.18419797 12.55078125 7.36328125 Z " fill="#0D1014" transform="translate(69,0)"/>
<path d="M0 0 C9.76374745 -0.57433809 9.76374745 -0.57433809 14 3 C15.19885141 6.59655423 14.83499672 8.82142348 14.3125 12.5625 C14.16425781 13.71878906 14.01601562 14.87507813 13.86328125 16.06640625 C13 19 13 19 11.10546875 20.40234375 C9 21 9 21 6 21 C6.33 18.69 6.66 16.38 7 14 C3.95865509 15.66924071 3.95865509 15.66924071 3 18 C2.34 17.67 1.68 17.34 1 17 C1.33 16.34 1.66 15.68 2 15 C1.01 15 0.02 15 -1 15 C-0.67 14.01 -0.34 13.02 0 12 C1.32 12 2.64 12 4 12 C4.33 11.34 4.66 10.68 5 10 C2.69 10.33 0.38 10.66 -2 11 C-1.34 13.97 -0.68 16.94 0 20 C-0.99 20.33 -1.98 20.66 -3 21 C-3.33 21.99 -3.66 22.98 -4 24 C-4.33 23.01 -4.66 22.02 -5 21 C-6.65 21 -8.3 21 -10 21 C-11.74057351 17.51885297 -11.4532396 13.80597089 -11 10 C-9.98456182 7.1536163 -8.85628564 5.47504752 -7 3 C-5.68 2.67 -4.36 2.34 -3 2 C-3.66 4.64 -4.32 7.28 -5 10 C-4.34 10 -3.68 10 -3 10 C-2.67 8.68 -2.34 7.36 -2 6 C4.4 5.63076923 4.4 5.63076923 7.4375 7.5 C7.953125 7.995 8.46875 8.49 9 9 C8.67 6.69 8.34 4.38 8 2 C7.01 2.33 6.02 2.66 5 3 C5 2.34 5 1.68 5 1 C3.35 1 1.7 1 0 1 C0 0.67 0 0.34 0 0 Z " fill="#8A706D" transform="translate(63,3)"/>
<path d="M0 0 C0.33 1.32 0.66 2.64 1 4 C-1.05078125 4.22786458 -3.1015625 4.45572917 -5.15234375 4.68359375 C-7.01140229 4.81886614 -7.01140229 4.81886614 -8 6 C-8.33228375 11.42730132 -7.4516516 15.82849117 -6 21 C-6.99 21.33 -7.98 21.66 -9 22 C-10.22520264 25.00847418 -10.22520264 25.00847418 -11 28 C-14.30063098 27.08315806 -15.93474769 26.06877946 -18.3125 23.5625 C-20.65113676 18.62537795 -20.79175848 14.37436059 -20 9 C-15.5218229 -0.28807102 -9.37563059 -0.44333104 0 0 Z " fill="#745F6B" transform="translate(48,3)"/>
<path d="M0 0 C1.134375 0.020625 2.26875 0.04125 3.4375 0.0625 C3.1075 1.0525 2.7775 2.0425 2.4375 3.0625 C1.1175 3.0625 -0.2025 3.0625 -1.5625 3.0625 C-1.8925 3.7225 -2.2225 4.3825 -2.5625 5.0625 C-1.5725 5.0625 -0.5825 5.0625 0.4375 5.0625 C0.7675 5.3925 1.0975 5.7225 1.4375 6.0625 C1.4375 5.4025 1.4375 4.7425 1.4375 4.0625 C2.7575 4.0625 4.0775 4.0625 5.4375 4.0625 C5.1075 6.3725 4.7775 8.6825 4.4375 11.0625 C5.015 10.711875 5.5925 10.36125 6.1875 10 C8.79551776 8.91332593 9.83167629 9.13184867 12.4375 10.0625 C12.7675 11.7125 13.0975 13.3625 13.4375 15.0625 C7.85708211 19.44711406 4.26079566 20.62025605 -2.85546875 19.88671875 C-7.44171355 18.49032964 -9.36545024 15.1321407 -11.5625 11.0625 C-9.9125 11.0625 -8.2625 11.0625 -6.5625 11.0625 C-6.2325 11.7225 -5.9025 12.3825 -5.5625 13.0625 C-3.9117976 11.87150157 -3.9117976 11.87150157 -2.5625 10.0625 C-2.67200412 7.77866507 -2.67200412 7.77866507 -3.4375 5.4375 C-3.84558967 3.98807807 -4.22904114 2.53088902 -4.5625 1.0625 C-3.5625 0.0625 -3.5625 0.0625 0 0 Z " fill="#1E262A" transform="translate(64.5625,12.9375)"/>
<path d="M0 0 C0 1.32 0 2.64 0 4 C0.66 4 1.32 4 2 4 C1.29772585 7.16023369 0.48261414 10.11280405 -1 13 C-3.125 13.8125 -3.125 13.8125 -5 14 C-5.12375 14.5775 -5.2475 15.155 -5.375 15.75 C-6.00648824 18.02335767 -6.88858191 19.9253529 -8 22 C-8.66 22 -9.32 22 -10 22 C-10.33 21.01 -10.66 20.02 -11 19 C-11.66 18.67 -12.32 18.34 -13 18 C-13.31571333 12.73811115 -12.89914347 9.44535331 -10 5 C-6.82039333 1.61554472 -4.84669427 0 0 0 Z " fill="#CDCACB" transform="translate(91,3)"/>
<path d="M0 0 C0.99 0.33 1.98 0.66 3 1 C2.855625 1.825 2.71125 2.65 2.5625 3.5 C2.26527623 5.34939236 1.98526712 7.20587265 1.8515625 9.07421875 C1.42963996 14.5089829 1.42963996 14.5089829 -0.75 17 C-3.34449086 18.15310705 -5.19002223 18.23416481 -8 18 C-9.75210338 13.51023509 -10.37076135 9.81989758 -10 5 C-8 3 -8 3 -6.0546875 2.8046875 C-4.03645833 2.86979167 -2.01822917 2.93489583 0 3 C0 2.01 0 1.02 0 0 Z " fill="#6A514F" transform="translate(49,4)"/>
<path d="M0 0 C2 2 2 2 2.25 5.8125 C2.06263046 11.28566289 0.81957269 14.4577809 -3.125 18.3125 C-5.93757584 20.62769401 -7.79059066 21.38147764 -11.4375 21.375 C-12.613125 21.25125 -13.78875 21.1275 -15 21 C-14.625 19.0625 -14.625 19.0625 -14 17 C-13.34 16.67 -12.68 16.34 -12 16 C-11.67 15.01 -11.34 14.02 -11 13 C-9.35 13 -7.7 13 -6 13 C-6 9.7 -6 6.4 -6 3 C-5.01 3 -4.02 3 -3 3 C-2.67 3.99 -2.34 4.98 -2 6 C-1.34 4.02 -0.68 2.04 0 0 Z " fill="#67534A" transform="translate(106,11)"/>
<path d="M0 0 C0.33 1.32 0.66 2.64 1 4 C-1.05078125 4.22786458 -3.1015625 4.45572917 -5.15234375 4.68359375 C-7.01140229 4.81886614 -7.01140229 4.81886614 -8 6 C-8.23075082 7.34747084 -8.41153063 8.70377565 -8.5625 10.0625 C-8.706875 11.361875 -8.85125 12.66125 -9 14 C-9.33 12.68 -9.66 11.36 -10 10 C-11.65 10 -13.3 10 -15 10 C-15 10.66 -15 11.32 -15 12 C-15.66 12 -16.32 12 -17 12 C-17.66 13.32 -18.32 14.64 -19 16 C-19.33 16 -19.66 16 -20 16 C-20.45647158 10.29410528 -19.69917584 7.39901992 -16 3 C-11.41523578 -1.16796748 -5.82829364 -0.27559357 0 0 Z " fill="#86757E" transform="translate(48,3)"/>
<path d="M0 0 C1.32 0 2.64 0 4 0 C4 0.66 4 1.32 4 2 C7.98650405 2.73035576 7.98650405 2.73035576 12 3 C13.77190909 1.64555699 13.77190909 1.64555699 15 0 C16.32 0 17.64 0 19 0 C21 3 21 3 21 6 C17.13652762 9.59702601 12.75875032 9.55197227 7.73828125 9.4296875 C3.37175519 8.74449796 1.20640827 6.99264772 -2 4 C-2 3.34 -2 2.68 -2 2 C-1.34 2 -0.68 2 0 2 C0 1.34 0 0.68 0 0 Z " fill="#929CB4" transform="translate(7,23)"/>
<path d="M0 0 C-0.2475 1.155 -0.495 2.31 -0.75 3.5 C-1.35000321 7.94476062 -0.12138576 10.49393691 2.1875 14.23828125 C3 16 3 16 2 19 C1.34 19 0.68 19 0 19 C-0.33 19.99 -0.66 20.98 -1 22 C-1.33 21.01 -1.66 20.02 -2 19 C-3.65 19 -5.3 19 -7 19 C-8.73807767 15.52384466 -8.46498853 11.80050626 -8 8 C-6.44967088 4.02498553 -4.76229245 0 0 0 Z " fill="#93B5B9" transform="translate(60,5)"/>
<path d="M0 0 C2.875 -0.1875 2.875 -0.1875 6 0 C6.66 0.99 7.32 1.98 8 3 C7.01 3 6.02 3 5 3 C5.3403125 4.1446875 5.3403125 4.1446875 5.6875 5.3125 C6 8 6 8 4.875 9.65625 C2.27997651 11.51601684 0.4687063 11.29889552 -2.6875 11.1875 C-3.68136719 11.16042969 -4.67523438 11.13335937 -5.69921875 11.10546875 C-6.45847656 11.07066406 -7.21773438 11.03585938 -8 11 C-8 8.03 -8 5.06 -8 2 C-7.01 2 -6.02 2 -5 2 C-4.67 2.99 -4.34 3.98 -4 5 C-3.01 5 -2.02 5 -1 5 C-0.67 3.35 -0.34 1.7 0 0 Z " fill="#B97C73" transform="translate(11,11)"/>
<path d="M0 0 C0 0.33 0 0.66 0 1 C-0.59167969 1.03738281 -1.18335937 1.07476562 -1.79296875 1.11328125 C-6.54423746 1.50857441 -10.19958423 1.87024584 -14 5 C-16.7380302 8.80244781 -17.38500878 11.60087524 -17.5625 16.25 C-17.69140625 19.453125 -17.69140625 19.453125 -18 22 C-18.66 22.33 -19.32 22.66 -20 23 C-20 22.34 -20 21.68 -20 21 C-20.99 20.67 -21.98 20.34 -23 20 C-22.34 19.67 -21.68 19.34 -21 19 C-20.56680266 16.61667492 -20.56680266 16.61667492 -20.4375 13.8125 C-20.35242188 12.81734375 -20.26734375 11.8221875 -20.1796875 10.796875 C-19.95477071 7.89519722 -19.95477071 7.89519722 -20.0625 4.5625 C-18.71922188 1.32282923 -17.62981394 0.96573976 -14.5 -0.5 C-9.169696 -2.37405501 -5.24277773 -1.87422972 0 0 Z " fill="#12181C" transform="translate(46,2)"/>
<path d="M0 0 C0.66 0 1.32 0 2 0 C2 3.3 2 6.6 2 10 C0.35 10 -1.3 10 -3 10 C-3.33 11.32 -3.66 12.64 -4 14 C-6.31 14.33 -8.62 14.66 -11 15 C-11.33 14.34 -11.66 13.68 -12 13 C-10.68 12.67 -9.36 12.34 -8 12 C-7.855625 11.38125 -7.71125 10.7625 -7.5625 10.125 C-7 8 -7 8 -6 6 C-6.66 5.34 -7.32 4.68 -8 4 C-7.67 3.34 -7.34 2.68 -7 2 C-6.34 2 -5.68 2 -5 2 C-5 2.66 -5 3.32 -5 4 C-3.68 4 -2.36 4 -1 4 C-0.67 2.68 -0.34 1.36 0 0 Z " fill="#302E2C" transform="translate(98,14)"/>
<path d="M0 0 C1.134375 0.020625 2.26875 0.04125 3.4375 0.0625 C3.1075 1.0525 2.7775 2.0425 2.4375 3.0625 C1.1175 3.0625 -0.2025 3.0625 -1.5625 3.0625 C-1.8925 3.7225 -2.2225 4.3825 -2.5625 5.0625 C-1.5725 5.0625 -0.5825 5.0625 0.4375 5.0625 C0.7675 5.3925 1.0975 5.7225 1.4375 6.0625 C1.4375 5.4025 1.4375 4.7425 1.4375 4.0625 C2.7575 4.0625 4.0775 4.0625 5.4375 4.0625 C5.1075 6.3725 4.7775 8.6825 4.4375 11.0625 C5.0975 11.3925 5.7575 11.7225 6.4375 12.0625 C5.468125 12.206875 4.49875 12.35125 3.5 12.5 C0.57263227 12.73812341 0.57263227 12.73812341 -0.5625 14.0625 C-1.5525 14.3925 -2.5425 14.7225 -3.5625 15.0625 C-4.2225 14.4025 -4.8825 13.7425 -5.5625 13.0625 C-5.04945312 12.66289062 -4.53640625 12.26328125 -4.0078125 11.8515625 C-2.29770606 10.15497541 -2.29770606 10.15497541 -2.7421875 7.8359375 C-2.97164062 7.04445313 -3.20109375 6.25296875 -3.4375 5.4375 C-3.84558967 3.98807807 -4.22904114 2.53088902 -4.5625 1.0625 C-3.5625 0.0625 -3.5625 0.0625 0 0 Z " fill="#483837" transform="translate(64.5625,12.9375)"/>
<path d="M0 0 C0.33 0 0.66 0 1 0 C1 4.29 1 8.58 1 13 C1.66 13.33 2.32 13.66 3 14 C1.625 16.5 1.625 16.5 0 19 C-0.66 19 -1.32 19 -2 19 C-2.33 18.01 -2.66 17.02 -3 16 C-3.66 15.67 -4.32 15.34 -5 15 C-5.31549831 9.74169479 -4.73345236 6.52070968 -2 2 C-1.34 1.34 -0.68 0.68 0 0 Z " fill="#848587" transform="translate(83,6)"/>
<path d="M0 0 C2.31 0 4.62 0 7 0 C7.66 1.65 8.32 3.3 9 5 C6.03 5 3.06 5 0 5 C-0.33 6.32 -0.66 7.64 -1 9 C-1.99 9 -2.98 9 -4 9 C-4 10.65 -4 12.3 -4 14 C-4.33 14 -4.66 14 -5 14 C-5 11.36 -5 8.72 -5 6 C-5.99 6 -6.98 6 -8 6 C-8 8.31 -8 10.62 -8 13 C-8.33 13 -8.66 13 -9 13 C-9 11.02 -9 9.04 -9 7 C-9.66 7 -10.32 7 -11 7 C-10.67 6.01 -10.34 5.02 -10 4 C-7.04215769 2.77606525 -5.00272755 3.03483757 -2 4 C-1.34 2.68 -0.68 1.36 0 0 Z " fill="#261817" transform="translate(11,7)"/>
<path d="M0 0 C9.76374745 -0.57433809 9.76374745 -0.57433809 14 3 C15.23922223 6.71766668 14.57018942 8.43889537 13.5625 12.1875 C13.27503906 13.27417969 12.98757812 14.36085938 12.69140625 15.48046875 C12.46324219 16.31191406 12.23507813 17.14335937 12 18 C10.68 18 9.36 18 8 18 C8.48578543 14.87709365 8.9986012 12.00419641 10 9 C9.40206327 6.64811553 8.74118205 4.31074405 8 2 C7.01 2.33 6.02 2.66 5 3 C5 2.34 5 1.68 5 1 C3.35 1 1.7 1 0 1 C0 0.67 0 0.34 0 0 Z " fill="#95B1BD" transform="translate(63,3)"/>
<path d="M0 0 C4.29 0.33 8.58 0.66 13 1 C12.67 1.99 12.34 2.98 12 4 C11.34 4 10.68 4 10 4 C9.34 5.98 8.68 7.96 8 10 C4.12539202 8.74337038 2.0139745 7.60395437 0 4 C0 2.68 0 1.36 0 0 Z " fill="#DECFB3" transform="translate(29,21)"/>
<path d="M0 0 C3.46941546 0.45822468 6.67395049 0.89131683 10 2 C10.33 4.31 10.66 6.62 11 9 C10.484375 8.67 9.96875 8.34 9.4375 8 C6.21973488 6.67989123 3.4429472 6.86757895 0 7 C-0.33 7.99 -0.66 8.98 -1 10 C-1.66 10 -2.32 10 -3 10 C-3.36629408 5.72656908 -2.40814077 3.51187196 0 0 Z " fill="#2E2E2E" transform="translate(61,3)"/>
<path d="M0 0 C0.33 0 0.66 0 1 0 C1 1.98 1 3.96 1 6 C1.99 6 2.98 6 4 6 C4 6.66 4 7.32 4 8 C3.01 8.66 2.02 9.32 1 10 C2.65 10.33 4.3 10.66 6 11 C5.67 11.99 5.34 12.98 5 14 C1.84113505 13.92478893 -0.30084288 13.62522327 -2.69921875 11.48046875 C-5.13433773 8.67978711 -6.81517013 6.5544896 -8 3 C-7.01 3.33 -6.02 3.66 -5 4 C-5 4.99 -5 5.98 -5 7 C-1.98672434 5.49336217 -1.38943382 2.96833589 0 0 Z " fill="#474648" transform="translate(86,18)"/>
<path d="M0 0 C0.33 1.32 0.66 2.64 1 4 C0.06027344 3.7834375 0.06027344 3.7834375 -0.8984375 3.5625 C-1.71570313 3.376875 -2.53296875 3.19125 -3.375 3 C-4.18710937 2.814375 -4.99921875 2.62875 -5.8359375 2.4375 C-7.95874951 1.93394761 -7.95874951 1.93394761 -10 2 C-9.979375 2.804375 -9.95875 3.60875 -9.9375 4.4375 C-10 7 -10 7 -11 8 C-13.33297433 8.04092937 -15.66705225 8.04241723 -18 8 C-17.12800528 5.06692685 -16.31296033 3.29276934 -14.0625 1.1875 C-9.43199798 -0.60800078 -4.90817776 -0.23208546 0 0 Z " fill="#D2D7DD" transform="translate(48,3)"/>
<path d="M0 0 C1.32 0 2.64 0 4 0 C4 0.66 4 1.32 4 2 C5.32 2.33 6.64 2.66 8 3 C8.33 4.98 8.66 6.96 9 9 C4.15833214 8.54961229 1.50331713 7.40027839 -2 4 C-2 3.34 -2 2.68 -2 2 C-1.34 2 -0.68 2 0 2 C0 1.34 0 0.68 0 0 Z " fill="#9199AC" transform="translate(7,23)"/>
<path d="M0 0 C0 2.31 0 4.62 0 7 C-0.66 6.34 -1.32 5.68 -2 5 C-5.5 4.58333333 -5.5 4.58333333 -9 5 C-9.99 6.485 -9.99 6.485 -11 8 C-12.32 8 -13.64 8 -15 8 C-15 7.01 -15 6.02 -15 5 C-13.68 5 -12.36 5 -11 5 C-10.67 3.68 -10.34 2.36 -10 1 C-6.56484998 0.37542727 -3.50935186 0 0 0 Z " fill="#474245" transform="translate(20,3)"/>
<path d="M0 0 C1.65 0 3.3 0 5 0 C5 0.99 5 1.98 5 3 C5.99 3.33 6.98 3.66 8 4 C7.01 6.97 6.02 9.94 5 13 C4.34 11.68 3.68 10.36 3 9 C2.34 8.67 1.68 8.34 1 8 C0.40644386 5.35139573 0.25790731 2.70802678 0 0 Z " fill="#2A2523" transform="translate(99,6)"/>
<path d="M0 0 C4.20091029 0.47737617 6.94507517 0.99774628 10 4 C10.390625 6.48046875 10.390625 6.48046875 10.25 9.1875 C10.21390625 10.08855469 10.1778125 10.98960938 10.140625 11.91796875 C10.07101563 12.94857422 10.07101563 12.94857422 10 14 C9.01 14 8.02 14 7 14 C7.33 11.69 7.66 9.38 8 7 C3.66335081 3.88303339 0.19591612 3.44033187 -5 3 C-5 2.67 -5 2.34 -5 2 C-3.35 2 -1.7 2 0 2 C0 1.34 0 0.68 0 0 Z " fill="#151E25" transform="translate(69,0)"/>
<path d="M0 0 C-1.39957689 3.38231081 -2.73064421 5.27928642 -6 7 C-8.72036936 7.24493747 -11.25824366 7.13708782 -14 7 C-13.67 5.68 -13.34 4.36 -13 3 C-10.79765548 2.42902179 -8.6110702 1.92591813 -6.375 1.5 C-4.02250688 1.00473829 -2.39250628 0 0 0 Z " fill="#B4AFB2" transform="translate(105,25)"/>
<path d="M0 0 C0.99 0 1.98 0 3 0 C3.33 1.32 3.66 2.64 4 4 C4.99 4 5.98 4 7 4 C8.6875 5.375 8.6875 5.375 10 7 C10 7.66 10 8.32 10 9 C6.7 9 3.4 9 0 9 C0 6.03 0 3.06 0 0 Z " fill="#A7999D" transform="translate(3,13)"/>
<path d="M0 0 C1.65 0.33 3.3 0.66 5 1 C5 3.64 5 6.28 5 9 C4.01 9.33 3.02 9.66 2 10 C2 10.66 2 11.32 2 12 C1.34 12 0.68 12 0 12 C-0.625 9.625 -0.625 9.625 -1 7 C-0.34 6.34 0.32 5.68 1 5 C1.66 5.33 2.32 5.66 3 6 C3 5.34 3 4.68 3 4 C1.68 3.67 0.36 3.34 -1 3 C-0.67 2.01 -0.34 1.02 0 0 Z " fill="#B57B6C" transform="translate(43,9)"/>
<path d="M0 0 C1.32 0.33 2.64 0.66 4 1 C4.33 2.65 4.66 4.3 5 6 C2.06171403 8.50298434 -0.17902761 9.46930939 -4 10 C-4 9.34 -4 8.68 -4 8 C-3.01 7.34 -2.02 6.68 -1 6 C-1.33 5.34 -1.66 4.68 -2 4 C-1.0625 1.875 -1.0625 1.875 0 0 Z " fill="#273B3E" transform="translate(73,22)"/>
<path d="M0 0 C1.32 0.33 2.64 0.66 4 1 C4 1.66 4 2.32 4 3 C5.98 2.67 7.96 2.34 10 2 C10 3.32 10 4.64 10 6 C9.34 6 8.68 6 8 6 C7.67 6.99 7.34 7.98 7 9 C6.67 8.01 6.34 7.02 6 6 C4.35 6 2.7 6 1 6 C0.67 4.02 0.34 2.04 0 0 Z " fill="#5D787F" transform="translate(52,18)"/>
<path d="M0 0 C2.5822601 4.19374572 1.83622146 7.02375362 0.7578125 11.64453125 C-0.24178721 14.75153447 -1.1548517 16.34033016 -4 18 C-7.25 17.75 -7.25 17.75 -10 17 C-9.401875 16.71125 -8.80375 16.4225 -8.1875 16.125 C-5.80672208 14.95257974 -5.80672208 14.95257974 -3 13 C-2.23682648 10.68490053 -2.23682648 10.68490053 -1.875 8.0625 C-1.40015268 5.23424271 -0.90995063 2.7298519 0 0 Z " fill="#1F1C1C" transform="translate(52,6)"/>
<path d="M0 0 C2.475 0.495 2.475 0.495 5 1 C5.33 2.65 5.66 4.3 6 6 C5.01 6 4.02 6 3 6 C3.66 6.33 4.32 6.66 5 7 C5 8.32 5 9.64 5 11 C4.01 11 3.02 11 2 11 C2 10.01 2 9.02 2 8 C1.34 8 0.68 8 0 8 C0 5.36 0 2.72 0 0 Z " fill="#D1CDCC" transform="translate(20,3)"/>
<path d="M0 0 C1.32 0.33 2.64 0.66 4 1 C4 1.66 4 2.32 4 3 C2.68 3 1.36 3 0 3 C0.66 4.65 1.32 6.3 2 8 C0.6875 9.5 0.6875 9.5 -1 11 C-1.99 11 -2.98 11 -4 11 C-4.33 8.69 -4.66 6.38 -5 4 C-4.360625 3.71125 -3.72125 3.4225 -3.0625 3.125 C-0.84793921 2.17176549 -0.84793921 2.17176549 0 0 Z " fill="#6B6D6B" transform="translate(91,13)"/>
<path d="M0 0 C1.53690745 2.41040161 2.09752136 3.50082285 1.5390625 6.359375 C1.23742187 7.14828125 0.93578125 7.9371875 0.625 8.75 C0.18027344 9.94882812 0.18027344 9.94882812 -0.2734375 11.171875 C-0.51320313 11.77515625 -0.75296875 12.3784375 -1 13 C0.32 13 1.64 13 3 13 C3 11.02 3 9.04 3 7 C3.33 7 3.66 7 4 7 C4 9.31 4 11.62 4 14 C1.35261084 15.4606285 0.10551666 16 -3 16 C-2.67 13.69 -2.34 11.38 -2 9 C-2.66 8.67 -3.32 8.34 -4 8 C-3.34 8 -2.68 8 -2 8 C-2 6.68 -2 5.36 -2 4 C-1.34 4 -0.68 4 0 4 C0 2.68 0 1.36 0 0 Z " fill="#686F71" transform="translate(72,8)"/>
<path d="M0 0 C1.64574566 -0.02688151 3.29161413 -0.04634123 4.9375 -0.0625 C5.85402344 -0.07410156 6.77054688 -0.08570312 7.71484375 -0.09765625 C10 0 10 0 11 1 C12.99958364 1.04080783 15.00045254 1.04254356 17 1 C17.33 1.99 17.66 2.98 18 4 C12.58461538 5.23076923 12.58461538 5.23076923 9.625 4.0625 C9.08875 3.711875 8.5525 3.36125 8 3 C8 2.34 8 1.68 8 1 C6.68 1 5.36 1 4 1 C4 1.66 4 2.32 4 3 C2.68 2.67 1.36 2.34 0 2 C0 1.34 0 0.68 0 0 Z " fill="#634843" transform="translate(3,22)"/>
<path d="M0 0 C4.62 0.66 9.24 1.32 14 2 C13.67 2.99 13.34 3.98 13 5 C7.49633208 5.32374517 3.56327794 5.53286034 -1 2 C-0.67 1.34 -0.34 0.68 0 0 Z " fill="#18191D" transform="translate(83,30)"/>
<path d="M0 0 C0.66 0.99 1.32 1.98 2 3 C1.34 4.32 0.68 5.64 0 7 C-1.32 7 -2.64 7 -4 7 C-4.33 7.99 -4.66 8.98 -5 10 C-5.99 10 -6.98 10 -8 10 C-6.5682479 4.98886765 -4.01554307 3.05530451 0 0 Z " fill="#0E0E11" transform="translate(9,1)"/>
<path d="M0 0 C2.64 0 5.28 0 8 0 C7.01 0.66 6.02 1.32 5 2 C5.7425 2.7115625 5.7425 2.7115625 6.5 3.4375 C8 5 8 5 8 6 C5.36 6 2.72 6 0 6 C-1.125 2.25 -1.125 2.25 0 0 Z " fill="#101418" transform="translate(91,0)"/>
<path d="M0 0 C0.33 0 0.66 0 1 0 C0.88601335 1.62580966 0.75844341 3.25067157 0.625 4.875 C0.55539063 5.77992187 0.48578125 6.68484375 0.4140625 7.6171875 C0 10 0 10 -2 12 C-4.125 11.625 -4.125 11.625 -6 11 C-6 10.01 -6 9.02 -6 8 C-6.99 7.67 -7.98 7.34 -9 7 C-6 6 -6 6 -4 6 C-4 6.99 -4 7.98 -4 9 C-3.01 9 -2.02 9 -1 9 C-1.66 8.67 -2.32 8.34 -3 8 C-3 6.68 -3 5.36 -3 4 C-2.01 4 -1.02 4 0 4 C0 2.68 0 1.36 0 0 Z " fill="#786D6C" transform="translate(26,5)"/>
<path d="M0 0 C4.29 0.33 8.58 0.66 13 1 C12.67 1.99 12.34 2.98 12 4 C11.67 3.34 11.34 2.68 11 2 C8.69 2.33 6.38 2.66 4 3 C4 4.65 4 6.3 4 8 C2 6.25 2 6.25 0 4 C0 2.68 0 1.36 0 0 Z " fill="#ABA193" transform="translate(29,21)"/>
<path d="M0 0 C0.66 0 1.32 0 2 0 C2 3.3 2 6.6 2 10 C0.68 10 -0.64 10 -2 10 C-1.85950482 8.52031676 -1.71245174 7.04125484 -1.5625 5.5625 C-1.48128906 4.73878906 -1.40007812 3.91507813 -1.31640625 3.06640625 C-1 1 -1 1 0 0 Z " fill="#C6C8CB" transform="translate(80,10)"/>
<path d="M0 0 C0 1.98 0 3.96 0 6 C-2.31 6 -4.62 6 -7 6 C-4.84615385 0 -4.84615385 0 0 0 Z " fill="#E9E6EB" transform="translate(37,5)"/>
<path d="M0 0 C2.31 0.33 4.62 0.66 7 1 C7 1.66 7 2.32 7 3 C6.44570312 3.17015625 5.89140625 3.3403125 5.3203125 3.515625 C0.74877023 4.90825986 0.74877023 4.90825986 -2.5 8.1875 C-2.665 8.785625 -2.83 9.38375 -3 10 C-3.36629408 5.72656908 -2.40814077 3.51187196 0 0 Z " fill="#485B61" transform="translate(61,3)"/>
<path d="M0 0 C3.71599191 -0.20086443 4.77208445 -0.1519437 8 2 C10.0492094 2.45139459 10.0492094 2.45139459 12.1875 2.625 C13.445625 2.74875 14.70375 2.8725 16 3 C16 3.33 16 3.66 16 4 C6.26995516 5.72107623 6.26995516 5.72107623 3.15625 3.953125 C1.8125 2.5625 1.8125 2.5625 0 0 Z " fill="#181D24" transform="translate(4,29)"/>
<path d="M0 0 C0.99 0.495 0.99 0.495 2 1 C1.01 1.495 1.01 1.495 0 2 C0 1.34 0 0.68 0 0 Z M-2 2 C-1.34 2.33 -0.68 2.66 0 3 C-0.66 4.32 -1.32 5.64 -2 7 C1.3 7.33 4.6 7.66 8 8 C8 8.33 8 8.66 8 9 C3.83861737 9.08159574 0.0527516 8.98248524 -4 8 C-4.33 8.66 -4.66 9.32 -5 10 C-4.45276317 6.62537285 -3.9451 4.91765 -2 2 Z " fill="#796E75" transform="translate(33,13)"/>
<path d="M0 0 C0.33 1.32 0.66 2.64 1 4 C0.195625 4.2475 -0.60875 4.495 -1.4375 4.75 C-4.171081 5.72238859 -4.171081 5.72238859 -4.8125 8.125 C-4.874375 8.74375 -4.93625 9.3625 -5 10 C-5.99 9.67 -6.98 9.34 -8 9 C-7.34 8.01 -6.68 7.02 -6 6 C-6.66 5.34 -7.32 4.68 -8 4 C-7.67 3.34 -7.34 2.68 -7 2 C-6.34 2 -5.68 2 -5 2 C-5 2.66 -5 3.32 -5 4 C-3.68 4 -2.36 4 -1 4 C-0.67 2.68 -0.34 1.36 0 0 Z " fill="#4C3E35" transform="translate(98,14)"/>
<path d="M0 0 C1.32 0.66 2.64 1.32 4 2 C3 5 3 5 0.75 6.25 C-2.28236729 7.07700926 -4.01120724 6.85394079 -7 6 C-7 5.67 -7 5.34 -7 5 C-3.535 4.505 -3.535 4.505 0 4 C0 2.68 0 1.36 0 0 Z " fill="#917A6D" transform="translate(102,21)"/>
<path d="M0 0 C2.62187494 1.04874998 3.79371361 1.64931313 5.25 4.125 C5.4975 4.74375 5.745 5.3625 6 6 C5.01 5.67 4.02 5.34 3 5 C1.33378384 4.96125079 -0.33394172 4.9549714 -2 5 C-2 4.01 -2 3.02 -2 2 C-1.34 2 -0.68 2 0 2 C0 1.34 0 0.68 0 0 Z " fill="#8B584D" transform="translate(16,19)"/>
<path d="M0 0 C0.33 0.66 0.66 1.32 1 2 C-2.22791555 4.1519437 -3.28400809 4.20086443 -7 4 C-7.33 3.01 -7.66 2.02 -8 1 C-5.29120665 -0.35439668 -2.99066732 -0.06501451 0 0 Z " fill="#0B0D0E" transform="translate(18,0)"/>
<path d="M0 0 C0.66 0 1.32 0 2 0 C2 2.64 2 5.28 2 8 C0.68 8 -0.64 8 -2 8 C-1.125 2.25 -1.125 2.25 0 0 Z " fill="#B7CFD8" transform="translate(73,13)"/>
<path d="M0 0 C1.32 0.33 2.64 0.66 4 1 C4 1.66 4 2.32 4 3 C3.360625 3.28875 2.72125 3.5775 2.0625 3.875 C-0.15206079 4.82823451 -0.15206079 4.82823451 -1 7 C-2.32 7 -3.64 7 -5 7 C-5 6.01 -5 5.02 -5 4 C-3.68 4 -2.36 4 -1 4 C-0.67 2.68 -0.34 1.36 0 0 Z " fill="#8B8087" transform="translate(10,4)"/>
<path d="M0 0 C2.31 0 4.62 0 7 0 C7 1.32 7 2.64 7 4 C5.02 4.33 3.04 4.66 1 5 C1.33 3.68 1.66 2.36 2 1 C1.34 0.67 0.68 0.34 0 0 Z " fill="#8D6965" transform="translate(91,6)"/>
<path d="M0 0 C2.97 0.495 2.97 0.495 6 1 C4.68 1.33 3.36 1.66 2 2 C2.061875 2.78375 2.12375 3.5675 2.1875 4.375 C2.125625 5.24125 2.06375 6.1075 2 7 C1.01 7.66 0.02 8.32 -1 9 C-1.125 2.25 -1.125 2.25 0 0 Z " fill="#9895AB" transform="translate(29,10)"/>
<path d="M0 0 C-0.47730838 1.4589426 -0.95691042 2.91713496 -1.4375 4.375 C-1.70433594 5.18710938 -1.97117187 5.99921875 -2.24609375 6.8359375 C-3 9 -3 9 -4 11 C-4.66 11 -5.32 11 -6 11 C-4.125 5.25 -4.125 5.25 -3 3 C-3.66 2.67 -4.32 2.34 -5 2 C-2 0 -2 0 0 0 Z " fill="#80A4A8" transform="translate(60,5)"/>
<path d="M0 0 C0.33 0.99 0.66 1.98 1 3 C2.32 3 3.64 3 5 3 C5 3.99 5 4.98 5 6 C4.01 6 3.02 6 2 6 C1.67 6.66 1.34 7.32 1 8 C0.67 7.01 0.34 6.02 0 5 C-0.99 4.67 -1.98 4.34 -3 4 C-2.01 4 -1.02 4 0 4 C0 2.68 0 1.36 0 0 Z " fill="#8B5F5C" transform="translate(10,12)"/>
<path d="M0 0 C0.99 0 1.98 0 3 0 C5 3 5 3 5 6 C4.01 6.33 3.02 6.66 2 7 C0.5393715 4.35261084 0 3.10551666 0 0 Z " fill="#9FA6BB" transform="translate(23,23)"/>
<path d="M0 0 C2 2 2 2 2.125 5.625 C2.08375 6.73875 2.0425 7.8525 2 9 C0.68 8.67 -0.64 8.34 -2 8 C-1.34 5.36 -0.68 2.72 0 0 Z " fill="#A5A7A8" transform="translate(106,11)"/>
<path d="M0 0 C0.33 1.65 0.66 3.3 1 5 C-0.98 5 -2.96 5 -5 5 C-4.625 3.0625 -4.625 3.0625 -4 1 C-2 0 -2 0 0 0 Z " fill="#D6D2D5" transform="translate(96,27)"/>
<path d="M0 0 C0.33 0 0.66 0 1 0 C1 2.97 1 5.94 1 9 C0.01 9.495 0.01 9.495 -1 10 C-1 9.34 -1 8.68 -1 8 C-1.99 7.67 -2.98 7.34 -4 7 C-3.34 6.67 -2.68 6.34 -2 6 C-1.67 5.01 -1.34 4.02 -1 3 C-0.67 2.01 -0.34 1.02 0 0 Z " fill="#222A32" transform="translate(27,15)"/>
<path d="M0 0 C0.33 0 0.66 0 1 0 C1 3.3 1 6.6 1 10 C0.34 10 -0.32 10 -1 10 C-1 9.01 -1 8.02 -1 7 C-2.32 6.67 -3.64 6.34 -5 6 C-4.360625 5.7525 -3.72125 5.505 -3.0625 5.25 C-0.81258459 4.18437567 -0.81258459 4.18437567 -0.25 1.875 C-0.1675 1.25625 -0.085 0.6375 0 0 Z " fill="#40332A" transform="translate(99,14)"/>
<path d="M0 0 C1.32 0.33 2.64 0.66 4 1 C4 1.66 4 2.32 4 3 C4.66 3.33 5.32 3.66 6 4 C3.36 4.33 0.72 4.66 -2 5 C-1.34 3.35 -0.68 1.7 0 0 Z " fill="#7E6868" transform="translate(61,9)"/>
<path d="M0 0 C0 0.33 0 0.66 0 1 C-2.97 1.66 -5.94 2.32 -9 3 C-9 1.68 -9 0.36 -9 -1 C-5.79937313 -2.60031344 -3.27728194 -1.03173691 0 0 Z " fill="#8D8F9A" transform="translate(47,6)"/>
<path d="M0 0 C0.66 0 1.32 0 2 0 C0.90931332 3.77545388 0.0916909 6.47043472 -3 9 C-2.25 2.25 -2.25 2.25 0 0 Z " fill="#BAD2D8" transform="translate(55,8)"/>
<path d="M0 0 C0 0.33 0 0.66 0 1 C-1.98 1 -3.96 1 -6 1 C-6 3.64 -6 6.28 -6 9 C-6.33 9 -6.66 9 -7 9 C-7 7.02 -7 5.04 -7 3 C-7.66 3 -8.32 3 -9 3 C-8.67 2.01 -8.34 1.02 -8 0 C-4.71023192 -1.09658936 -3.28696233 -0.79953138 0 0 Z " fill="#353338" transform="translate(9,11)"/>
<path d="M0 0 C1.32 0.99 2.64 1.98 4 3 C3.67 4.65 3.34 6.3 3 8 C2.01 7.67 1.02 7.34 0 7 C0 4.69 0 2.38 0 0 Z " fill="#8199A6" transform="translate(74,4)"/>
<path d="M0 0 C2.97 0.33 5.94 0.66 9 1 C8.67 1.99 8.34 2.98 8 4 C5.125 3.6875 5.125 3.6875 2 3 C1.34 2.01 0.68 1.02 0 0 Z " fill="#676265" transform="translate(83,28)"/>
<path d="M0 0 C0.99 0.66 1.98 1.32 3 2 C2.34 3.32 1.68 4.64 1 6 C-0.32 5.34 -1.64 4.68 -3 4 C-2.67 3.01 -2.34 2.02 -2 1 C-1.34 1.33 -0.68 1.66 0 2 C0 1.34 0 0.68 0 0 Z " fill="#BFB8A9" transform="translate(36,25)"/>
<path d="M0 0 C0.66 0.33 1.32 0.66 2 1 C1.67 1.99 1.34 2.98 1 4 C0.34 4 -0.32 4 -1 4 C-1.33 4.99 -1.66 5.98 -2 7 C-2.33 7 -2.66 7 -3 7 C-3 5.02 -3 3.04 -3 1 C-2.01 0.67 -1.02 0.34 0 0 Z " fill="#6D8D92" transform="translate(61,20)"/>
<path d="M0 0 C3.3 0 6.6 0 10 0 C9.67 0.99 9.34 1.98 9 3 C8.67 2.34 8.34 1.68 8 1 C6.68 1 5.36 1 4 1 C4 1.66 4 2.32 4 3 C2.68 2.67 1.36 2.34 0 2 C0 1.34 0 0.68 0 0 Z " fill="#342F2F" transform="translate(3,22)"/>
<path d="M0 0 C1.32 0.33 2.64 0.66 4 1 C4 1.66 4 2.32 4 3 C2.68 3 1.36 3 0 3 C0 3.66 0 4.32 0 5 C-1.32 5.33 -2.64 5.66 -4 6 C-4.33 5.34 -4.66 4.68 -5 4 C-4.360625 3.71125 -3.72125 3.4225 -3.0625 3.125 C-0.84793921 2.17176549 -0.84793921 2.17176549 0 0 Z " fill="#736361" transform="translate(91,13)"/>
<path d="M0 0 C1.22589844 0.29197266 1.22589844 0.29197266 2.4765625 0.58984375 C3.41628906 0.82380859 3.41628906 0.82380859 4.375 1.0625 C4.375 1.3925 4.375 1.7225 4.375 2.0625 C0.745 2.3925 -2.885 2.7225 -6.625 3.0625 C-6.625 2.0725 -6.625 1.0825 -6.625 0.0625 C-3.99249612 -1.25375194 -2.82320944 -0.68563658 0 0 Z " fill="#2A2E38" transform="translate(41.625,0.9375)"/>
<path d="M0 0 C2.64 0 5.28 0 8 0 C8 0.66 8 1.32 8 2 C3.545 2.495 3.545 2.495 -1 3 C-0.67 2.01 -0.34 1.02 0 0 Z " fill="#071116" transform="translate(61,0)"/>
<path d="M0 0 C0.598125 0.20625 1.19625 0.4125 1.8125 0.625 C0.8225 0.955 -0.1675 1.285 -1.1875 1.625 C-1.1875 2.945 -1.1875 4.265 -1.1875 5.625 C-2.8375 5.295 -4.4875 4.965 -6.1875 4.625 C-5.03076352 1.15479057 -3.91311293 -0.67081936 0 0 Z " fill="#3A4C50" transform="translate(65.1875,22.375)"/>
<path d="M0 0 C0.66 0 1.32 0 2 0 C2.33 2.64 2.66 5.28 3 8 C2.01 7.67 1.02 7.34 0 7 C0 4.69 0 2.38 0 0 Z " fill="#67392B" transform="translate(40,14)"/>
<path d="M0 0 C0.66 0.99 1.32 1.98 2 3 C1.34 4.32 0.68 5.64 0 7 C-0.99 6.67 -1.98 6.34 -3 6 C-2.625 3.5625 -2.625 3.5625 -2 1 C-1.34 0.67 -0.68 0.34 0 0 Z " fill="#232022" transform="translate(9,1)"/>
<path d="M0 0 C1.65 0 3.3 0 5 0 C5.33 1.65 5.66 3.3 6 5 C5.01 5 4.02 5 3 5 C1.3125 2.5 1.3125 2.5 0 0 Z " fill="#2E4044" transform="translate(53,24)"/>
<path d="M0 0 C0.99 0.33 1.98 0.66 3 1 C3 2.32 3 3.64 3 5 C1.68 5 0.36 5 -1 5 C-0.67 3.35 -0.34 1.7 0 0 Z " fill="#AAC9CF" transform="translate(57,13)"/>
<path d="M0 0 C2.31 0 4.62 0 7 0 C6.67 0.99 6.34 1.98 6 3 C3.69 2.67 1.38 2.34 -1 2 C-0.67 1.34 -0.34 0.68 0 0 Z " fill="#46312C" transform="translate(61,13)"/>
<path d="M0 0 C1.65 0.33 3.3 0.66 5 1 C5 1.66 5 2.32 5 3 C1.25 4.125 1.25 4.125 -1 3 C-0.67 2.01 -0.34 1.02 0 0 Z " fill="#9B6967" transform="translate(43,9)"/>
<path d="M0 0 C-0.33 0.99 -0.66 1.98 -1 3 C-2.98 3.33 -4.96 3.66 -7 4 C-6.67 3.01 -6.34 2.02 -6 1 C-4 0 -4 0 0 0 Z " fill="#0D0C11" transform="translate(91,0)"/>
<path d="M0 0 C2.64 0 5.28 0 8 0 C7.67 0.99 7.34 1.98 7 3 C4.69 2.67 2.38 2.34 0 2 C0 1.34 0 0.68 0 0 Z " fill="#2B353E" transform="translate(60,29)"/>
<path d="M0 0 C1.32 0 2.64 0 4 0 C4 0.66 4 1.32 4 2 C5.65 2.33 7.3 2.66 9 3 C9 3.33 9 3.66 9 4 C6.36 4 3.72 4 1 4 C0.67 2.68 0.34 1.36 0 0 Z " fill="#2C2B29" transform="translate(90,2)"/>
</svg>
